#!OML:ASF I:\Actors\actors\Patient Classification 2\Patient 1\Session 1\actor1.ASF
:FULLY-SPECIFIED
:DEGREES
613
root -0.394546 18.8432 4.13666 10.5519 -2.39857 -1.66663
lowerback 33.6013 1.21756 -4.30334
upperback 6.45264 -0.201894 -1.92225
thorax -9.99822 -0.00459988 0.331958
lowerneck -20.3014 -0.394737 3.91616
upperneck 28.8995 -2.94353 2.97007
head 13.0998 -0.448857 -0.0150324
rclavicle -7.95139e-016 1.11319e-014
rhumerus 32.8702 34.2236 -38.6028
rradius 104.675
rwrist -45.3844
rhand -34.787 -33.3565
rfingers 7.12502
rthumb -7.93922 296.813
lclavicle -7.95139e-016 1.11319e-014
lhumerus 19.6958 -38.3103 61.456
lradius 85.8783
lwrist 36.594
lhand -30.4444 -65.5823
lfingers 7.12502
lthumb -3.7466 -35.6355
rfemur 0 0 0
rtibia 0
rfoot 0 0
rtoes 0
lfemur -23.514 3.41591 -13.0365
ltibia 26.2338
lfoot -14.7469 9.0046
ltoes -56.066
614
root -0.38944 18.8442 4.12835 10.6529 -2.48828 -1.72609
lowerback 34.0802 1.30738 -4.46892
upperback 6.47737 -0.173306 -1.90066
thorax -10.1523 0.0142529 0.42733
lowerneck -20.4618 -0.324369 3.93611
upperneck 28.7713 -2.89008 3.0825
head 13.0837 -0.409697 0.0333059
rclavicle 9.54166e-015 1.82882e-014
rhumerus 32.6228 34.5212 -38.9858
rradius 104.37
rwrist -44.9697
rhand -34.7193 -33.4358
rfingers 7.12502
rthumb -7.87388 296.731
lclavicle 9.54166e-015 1.82882e-014
lhumerus 19.3134 -38.1206 62.4272
lradius 85.5631
lwrist 36.2318
lhand -30.401 -65.9523
lfingers 7.12502
lthumb -3.7047 -36.0047
rfemur 0 0 0
rtibia 0
rfoot 0 0
rtoes 0
lfemur -23.6718 3.43179 -12.9938
ltibia 26.306
lfoot -14.7775 9.06213
ltoes -55.9988
615
root -0.38917 18.8455 4.11192 10.8505 -2.47521 -1.75209
lowerback 34.2286 1.27913 -4.51998
upperback 6.68914 -0.239726 -2.00296
thorax -9.97012 -0.0203764 0.370311
lowerneck -20.6848 -0.241254 4.03274
upperneck 28.4664 -2.87605 3.30547
head 13.0104 -0.368567 0.103842
rclavicle 1.27222e-014 -2.62396e-014
rhumerus 32.5462 34.5764 -39.4766
rradius 104.049
rwrist -44.7325
rhand -34.622 -33.2628
rfingers 7.12502
rthumb -7.77994 296.9
lclavicle 1.27222e-014 -2.62396e-014
lhumerus 19.2798 -37.8105 62.9775
lradius 85.2766
lwrist 35.8804
lhand -30.3708 -66.2306
lfingers 7.12502
lthumb -3.67552 -36.2825
rfemur 0 0 0
rtibia 0
rfoot 0 0
rtoes 0
lfemur -23.9866 3.53689 -12.9829
ltibia 26.3752
lfoot -14.7139 8.96847
ltoes -55.9437
616
root -0.386089 18.8464 4.09785 10.9852 -2.46591 -1.77547
lowerback 34.7618 1.29446 -4.66472
upperback 6.68671 -0.307174 -2.01505
thorax -10.1689 -0.0443367 0.454946
lowerneck -20.8257 -0.167974 4.17861
upperneck 28.2977 -2.83127 3.32809
head 12.9702 -0.333493 0.0943438
rclavicle -2.38542e-015 -1.66979e-014
rhumerus 32.3048 34.9164 -39.9379
rradius 103.756
rwrist -44.3467
rhand -34.627 -32.8482
rfingers 7.12502
rthumb -7.78479 297.315
lclavicle -2.38542e-015 -1.66979e-014
lhumerus 19.095 -37.6798 63.592
lradius 84.8864
lwrist 35.9182
lhand -30.0292 -66.1601
lfingers 7.12502
lthumb -3.34568 -36.2066
rfemur 0 0 0
rtibia 0
rfoot 0 0
rtoes 0
lfemur -24.2216 3.60704 -12.9831
ltibia 26.4344
lfoot -14.6769 8.92364
ltoes -55.8983
617
root -0.382531 18.8465 4.08076 11.1851 -2.43146 -1.79753
lowerback 35.151 1.28372 -4.81833
upperback 6.72476 -0.400264 -2.0303
thorax -10.1474 -0.0844355 0.531069
lowerneck -21.0475 -0.0632141 4.38438
upperneck 28.0321 -2.75756 3.33152
head 12.9065 -0.283985 0.0716924
rclavicle -1.66979e-014 7.15625e-015
rhumerus 32.6193 34.9855 -40.1954
rradius 103.197
rwrist -43.9611
rhand -34.6244 -32.5044
rfingers 7.12502
rthumb -7.7823 297.659
lclavicle -1.66979e-014 7.15625e-015
lhumerus 19.2948 -37.6131 63.7754
lradius 84.2908
lwrist 36.5501
lhand -29.1617 -65.7647
lfingers 7.12502
lthumb -2.50789 -35.7997
rfemur 0 0 0
rtibia 0
rfoot 0 0
rtoes 0
lfemur -24.5525 3.65684 -12.9867
ltibia 26.4909
lfoot -14.6031 8.90922
ltoes -55.9034
618
root -0.376989 18.8465 4.06652 11.3198 -2.41215 -1.86087
lowerback 35.5468 1.2605 -4.86753
upperback 6.81702 -0.47717 -2.09224
thorax -10.1881 -0.118439 0.517786
lowerneck -21.2796 -0.012535 4.43033
upperneck 27.8538 -2.78601 3.5726
head 12.8884 -0.261005 0.150989
rclavicle -5.56597e-015 -7.95139e-016
rhumerus 33.1699 34.9237 -40.4393
rradius 102.394
rwrist -43.7127
rhand -34.622 -32.2803
rfingers 7.12502
rthumb -7.77989 297.883
lclavicle -5.56597e-015 -7.95139e-016
lhumerus 19.4564 -37.3713 63.9797
lradius 84.0013
lwrist 36.2063
lhand -29.4602 -66.4407
lfingers 7.12502
lthumb -2.79612 -36.4793
rfemur 0 0 0
rtibia 0
rfoot 0 0
rtoes 0
lfemur -24.7909 3.67711 -12.9401
ltibia 26.5498
lfoot -14.5611 8.905
ltoes -55.8636
619
root -0.369627 18.8475 4.05412 11.489 -2.37925 -1.91571
lowerback 35.8823 1.23685 -4.87751
upperback 6.90011 -0.536194 -2.14911
thorax -10.2169 -0.1451 0.483027
lowerneck -21.5587 -0.0158074 4.24851
upperneck 27.7955 -2.87548 3.99076
head 12.9356 -0.259999 0.327514
rclavicle -1.82882e-014 -1.59028e-014
rhumerus 33.3436 34.9533 -40.891
rradius 101.754
rwrist -43.4201
rhand -34.7771 -31.7414
rfingers 7.12502
rthumb -7.92961 298.427
lclavicle -1.82882e-014 -1.59028e-014
lhumerus 19.6785 -37.1249 64.2019
lradius 83.7593
lwrist 35.783
lhand -29.8779 -67.2245
lfingers 7.12502
lthumb -3.19958 -37.2687
rfemur 0 0 0
rtibia 0
rfoot 0 0
rtoes 0
lfemur -25.0607 3.6415 -12.9026
ltibia 26.6114
lfoot -14.5307 8.92401
ltoes -55.8018
620
root -0.364647 18.849 4.04174 11.6257 -2.3717 -1.98321
lowerback 36.2963 1.23432 -4.94868
upperback 6.97316 -0.59221 -2.16415
thorax -10.2824 -0.168378 0.523444
lowerneck -21.7012 0.0387531 4.414
upperneck 27.5191 -2.81645 3.88186
head 12.8476 -0.238325 0.265529
rclavicle 3.18055e-015 -2.06736e-014
rhumerus 33.1993 35.1457 -41.5279
rradius 101.331
rwrist -42.8648
rhand -34.9343 -30.9616
rfingers 7.12502
rthumb -8.08134 299.213
lclavicle 3.18055e-015 -2.06736e-014
lhumerus 19.677 -36.8439 64.6076
lradius 83.4746
lwrist 35.4553
lhand -30.057 -67.6434
lfingers 7.12502
lthumb -3.37253 -37.6903
rfemur 0 0 0
rtibia 0
rfoot 0 0
rtoes 0
lfemur -25.2887 3.65321 -12.8509
ltibia 26.6676
lfoot -14.4684 8.93914
ltoes -55.8257
